<?xml version="1.0" standalone="no"?><!DOCTYPE svg PUBLIC "-//W3C//DTD SVG 1.1//EN" "http://www.w3.org/Graphics/SVG/1.1/DTD/svg11.dtd"><svg t="1622604832802" class="icon" viewBox="0 0 1027 1024" version="1.1" xmlns="http://www.w3.org/2000/svg" p-id="6499" xmlns:xlink="http://www.w3.org/1999/xlink" width="200.5859375" height="200"><defs><style type="text/css"></style></defs><path d="M798.035009 1024H599.72589c-20.790472 0-36.783143-15.992671-36.783143-36.783143V670.561974H449.394784v316.654883c0 20.790472-15.992671 36.783143-36.783143 36.783143H217.501057c-60.772149 0-110.349429-49.57728-110.349429-110.349429V590.59862H86.361156c-47.978013 0-86.360423-38.38241-86.360423-86.360423 0-22.389739 7.996335-43.180211 23.989006-59.172882L396.61897 50.046345c60.772149-63.970683 161.525976-67.169218 227.095926-6.397069 1.599267 3.198534 3.198534 4.797801 6.397069 6.397069l372.629231 395.01897c33.584609 33.584609 31.985342 87.95969-1.599267 121.544298-15.992671 15.992671-38.38241 23.989006-60.77215 23.989007h-31.985341v323.051951c0 60.772149-49.57728 110.349429-110.349429 110.349429z m-159.926709-73.566286h159.926709c20.790472 0 38.38241-17.591938 38.38241-38.38241V553.815477c0-20.790472 15.992671-36.783143 36.783143-36.783143h68.768484c4.797801 0 9.595603-3.198534 11.19487-7.996336 1.599267-4.797801 1.599267-9.595603-3.198534-14.393403L575.736884 101.222891c-33.584609-35.183876-87.95969-36.783143-123.143566-3.198534-1.599267 0-3.198534 1.599267-3.198534 3.198534L76.765553 494.642595c-4.797801 4.797801-4.797801 12.794137 0 17.591938 3.198534 3.198534 6.397068 3.198534 9.595603 3.198534H145.534038c20.790472 0 36.783143 15.992671 36.783143 36.783143V912.051304c0 20.790472 17.591938 38.38241 38.38241 38.38241h158.327441V670.561974c0-41.580944 33.584609-73.566286 73.566286-73.566286h113.547963c41.580944 0 73.566286 33.584609 73.566286 73.566286l-1.599267 279.87174z" p-id="6500" fill="#2c2c2c"></path></svg>